<svg viewBox="0 0 74.98 83.48" xmlns="http://www.w3.org/2000/svg" xmlns:xlink="http://www.w3.org/1999/xlink"><linearGradient id="a" gradientUnits="userSpaceOnUse" x1=".83" x2="75.09" y1="76.1" y2="76.1"><stop offset=".01" stop-color="#005b97"/><stop offset="1" stop-color="#29abe2"/></linearGradient><text fill="#29abe2" font-family="Didot" font-size="72" transform="translate(21.55 61.96)">A</text><text fill="#0071bc" font-family="Didot" font-size="72" transform="translate(.07 61.96)">A</text><g transform="translate(-.11)"><path d="m16.25 81.77-1.43.28-1.82-9.86c-.23.48-.73 1.58-1.52 3.31s-1.56 3.5-2.3 5.19h-1.18c-.7-1.61-1.47-3.36-2.31-5.23s-1.34-3-1.49-3.27q-.06.23-.72 3.36t-1.3 6.45l-1.35-.21q.87-3.79 1.64-7.51c.51-2.48.79-3.82.83-4l1.4-.28c.06.14.47 1.08 1.25 2.84s1.67 3.77 2.72 6.05h.05q1.2-2.69 2.53-5.73c.89-2 1.35-3.08 1.39-3.16l1.33.11c0 .13.26 1.41.73 3.85s.98 5.04 1.55 7.81z"/><path d="m26.57 81.93h-7.48c0-.34 0-1.08 0-2.21s0-2.3 0-3.51c0-.66 0-1.53 0-2.62s0-2.22 0-3.39h7.37v1.22h-5.93v2s0 1.28 0 1.87h1.89 2.77 1.3v1.21h-6v2.64 1.64h6.05z"/><path d="m39.81 76.13a4.91 4.91 0 0 1 -.76 2.71 5.84 5.84 0 0 1 -2 1.88 8.39 8.39 0 0 1 -2.34 1 11.9 11.9 0 0 1 -2.92.33h-1.2l-.59-.05s0-.7 0-2 0-2.58 0-3.76c0-.63 0-1.43 0-2.42s0-2.18 0-3.58h1.57a14.84 14.84 0 0 1 3.23.32 8.1 8.1 0 0 1 2.52 1 5.18 5.18 0 0 1 2.53 4.62zm-1.5 0a4.1 4.1 0 0 0 -2-3.68 6.93 6.93 0 0 0 -2.2-.87 11.41 11.41 0 0 0 -2.19-.24h-.46v2.3s0 1.1 0 1.46 0 .86 0 1.81 0 2.25 0 3.93h.45a10 10 0 0 0 2.29-.27 7 7 0 0 0 1.94-.74 4.89 4.89 0 0 0 1.56-1.53 3.82 3.82 0 0 0 .61-2.18z"/><path d="m52.9 81.47-1.37.71c0-.06-.21-.5-.56-1.31s-.81-1.85-1.39-3.12h-5.2c-.62 1.37-1.1 2.43-1.43 3.18s-.53 1.16-.56 1.25l-1.18-.64q.23-.45 1.89-4c1.1-2.38 2.25-4.89 3.44-7.51h1.14c1.17 2.62 2.32 5.17 3.45 7.63s1.72 3.72 1.77 3.81zm-3.82-4.84c-.31-.72-.64-1.46-1-2.24l-1.08-2.45c-.3.64-.65 1.43-1.07 2.37s-.76 1.71-1 2.31h4.2z"/><path d="m63.18 71.42h-4.32q0 1.8 0 2.73v2.55 3.14s0 1.77 0 2.13h-1.45c0-.36 0-1.07 0-2.16s0-2.15 0-3.18v-2.46c0-.6 0-1.52 0-2.77-1.25 0-2.26 0-3 0h-1.28v-1.2h10.05z"/><path d="m75.09 81.47-1.36.71-.57-1.31c-.35-.81-.81-1.85-1.39-3.12h-5.2c-.62 1.37-1.1 2.43-1.43 3.18l-.56 1.25-1.18-.64c.16-.3.78-1.64 1.89-4s2.25-4.89 3.44-7.51h1.14c1.17 2.62 2.33 5.17 3.46 7.63zm-3.82-4.84c-.31-.72-.63-1.46-1-2.24s-.71-1.6-1.09-2.45c-.3.64-.65 1.43-1.07 2.37s-.76 1.71-1 2.31h4.2z"/><path d="m16.25 81.77-1.43.28-1.82-9.86c-.23.48-.73 1.58-1.52 3.31s-1.56 3.5-2.3 5.19h-1.18c-.7-1.61-1.47-3.36-2.31-5.23s-1.34-3-1.49-3.27q-.06.23-.72 3.36t-1.3 6.45l-1.35-.21q.87-3.79 1.64-7.51c.51-2.48.79-3.82.83-4l1.4-.28c.06.14.47 1.08 1.25 2.84s1.67 3.77 2.72 6.05h.05q1.2-2.69 2.53-5.73c.89-2 1.35-3.08 1.39-3.16l1.33.11c0 .13.26 1.41.73 3.85s.98 5.04 1.55 7.81z" fill="url(#a)"/><path d="m26.57 81.93h-7.48c0-.34 0-1.08 0-2.21s0-2.3 0-3.51c0-.66 0-1.53 0-2.62s0-2.22 0-3.39h7.37v1.22h-5.93v2s0 1.28 0 1.87h1.89 2.77 1.3v1.21h-6v2.64 1.64h6.05z" fill="url(#a)"/><path d="m39.81 76.13a4.91 4.91 0 0 1 -.76 2.71 5.84 5.84 0 0 1 -2 1.88 8.39 8.39 0 0 1 -2.34 1 11.9 11.9 0 0 1 -2.92.33h-1.2l-.59-.05s0-.7 0-2 0-2.58 0-3.76c0-.63 0-1.43 0-2.42s0-2.18 0-3.58h1.57a14.84 14.84 0 0 1 3.23.32 8.1 8.1 0 0 1 2.52 1 5.18 5.18 0 0 1 2.53 4.62zm-1.5 0a4.1 4.1 0 0 0 -2-3.68 6.93 6.93 0 0 0 -2.2-.87 11.41 11.41 0 0 0 -2.19-.24h-.46v2.3s0 1.1 0 1.46 0 .86 0 1.81 0 2.25 0 3.93h.45a10 10 0 0 0 2.29-.27 7 7 0 0 0 1.94-.74 4.89 4.89 0 0 0 1.56-1.53 3.82 3.82 0 0 0 .61-2.18z" fill="url(#a)"/><path d="m52.9 81.47-1.37.71c0-.06-.21-.5-.56-1.31s-.81-1.85-1.39-3.12h-5.2c-.62 1.37-1.1 2.43-1.43 3.18s-.53 1.16-.56 1.25l-1.18-.64q.23-.45 1.89-4c1.1-2.38 2.25-4.89 3.44-7.51h1.14c1.17 2.62 2.32 5.17 3.45 7.63s1.72 3.72 1.77 3.81zm-3.82-4.84c-.31-.72-.64-1.46-1-2.24l-1.08-2.45c-.3.64-.65 1.43-1.07 2.37s-.76 1.71-1 2.31h4.2z" fill="url(#a)"/><path d="m63.18 71.42h-4.32q0 1.8 0 2.73v2.55 3.14s0 1.77 0 2.13h-1.45c0-.36 0-1.07 0-2.16s0-2.15 0-3.18v-2.46c0-.6 0-1.52 0-2.77-1.25 0-2.26 0-3 0h-1.28v-1.2h10.05z" fill="url(#a)"/><path d="m75.09 81.47-1.36.71-.57-1.31c-.35-.81-.81-1.85-1.39-3.12h-5.2c-.62 1.37-1.1 2.43-1.43 3.18l-.56 1.25-1.18-.64c.16-.3.78-1.64 1.89-4s2.25-4.89 3.44-7.51h1.14c1.17 2.62 2.33 5.17 3.46 7.63zm-3.82-4.84c-.31-.72-.63-1.46-1-2.24s-.71-1.6-1.09-2.45c-.3.64-.65 1.43-1.07 2.37s-.76 1.71-1 2.31h4.2z" fill="url(#a)"/></g></svg>